<?xml version="1.0" standalone="no"?>
<!DOCTYPE svg PUBLIC "-//W3C//DTD SVG 20010904//EN"
 "http://www.w3.org/TR/2001/REC-SVG-20010904/DTD/svg10.dtd">
<svg version="1.0" xmlns="http://www.w3.org/2000/svg"
 width="700.000000pt" height="700.000000pt" viewBox="0 0 700.000000 700.000000"
 preserveAspectRatio="xMidYMid meet">
<metadata>
Created by potrace 1.14, written by Peter Selinger 2001-2017
</metadata>
<g transform="translate(0.000000,700.000000) scale(0.100000,-0.100000)"
fill="#000000" stroke="none">
<path d="M590 6943 c-29 -75 -79 -222 -85 -248 -2 -11 -15 -58 -29 -104 -61
-199 -69 -266 -69 -606 0 -238 2 -268 23 -350 53 -210 127 -382 213 -497 68
-89 136 -165 337 -372 250 -259 2313 -2326 2320 -2326 4 0 80 73 170 162 l162
161 37 -39 c46 -50 189 -209 227 -253 16 -19 38 -43 50 -55 11 -12 94 -104
185 -206 90 -102 166 -187 169 -190 3 -3 57 -63 120 -135 63 -71 122 -137 130
-145 8 -8 30 -33 49 -55 18 -22 54 -63 80 -90 25 -28 64 -70 85 -95 22 -25 74
-83 117 -130 43 -47 86 -94 96 -106 21 -25 144 -162 158 -178 6 -6 42 -47 80
-90 39 -44 81 -92 95 -106 14 -14 54 -59 90 -100 36 -40 70 -78 75 -84 6 -6
51 -56 100 -111 49 -55 91 -102 95 -105 3 -3 41 -45 84 -95 44 -49 122 -133
175 -185 78 -78 112 -103 182 -138 152 -75 299 -88 455 -38 217 69 377 251
419 476 19 98 -7 286 -50 370 -34 65 -129 167 -703 749 -117 119 -1372 1376
-2789 2794 l-2576 2577 -127 0 -127 0 -23 -57z"/>
<path d="M4892 6342 c-890 -891 -905 -906 -974 -1038 -64 -123 -85 -186 -114
-349 -8 -44 -21 -114 -29 -157 -17 -86 -13 -104 35 -158 75 -86 874 -880 885
-880 6 0 52 9 101 19 49 10 120 22 158 25 84 8 212 50 349 114 l102 48 795
793 795 792 -138 135 c-75 74 -142 134 -148 134 -15 0 -80 -64 -652 -632 -253
-252 -463 -458 -466 -458 -4 0 -69 63 -146 140 l-140 140 558 558 557 557
-148 147 -147 148 -557 -558 -558 -557 -140 140 c-77 77 -140 142 -140 145 0
3 219 227 488 496 558 562 602 608 602 623 0 19 -256 271 -275 271 -9 0 -303
-287 -653 -638z"/>
<path d="M2128 2992 c-8 -9 -237 -237 -507 -507 -594 -591 -1342 -1345 -1430
-1441 -87 -94 -117 -136 -141 -202 -62 -165 -54 -344 20 -493 75 -148 202
-258 356 -309 113 -38 320 -31 428 14 58 24 165 112 336 276 80 77 1759 1750
1799 1794 l24 26 -395 392 c-524 520 -470 471 -490 450z"/>
</g>
</svg>
